<?xml version="1.0" encoding="UTF-8" standalone="no"?>
<!-- Created with Inkscape (http://www.inkscape.org/) -->

<svg
   xmlns:dc="http://purl.org/dc/elements/1.1/"
   xmlns:cc="http://creativecommons.org/ns#"
   xmlns:rdf="http://www.w3.org/1999/02/22-rdf-syntax-ns#"
   xmlns:svg="http://www.w3.org/2000/svg"
   xmlns="http://www.w3.org/2000/svg"
   version="1.1"
   width="131"
   height="221"
   id="svg4334">
  <defs
     id="defs4336" />
  <metadata
     id="metadata4339">
    <rdf:RDF>
      <cc:Work
         rdf:about="">
        <dc:format>image/svg+xml</dc:format>
        <dc:type
           rdf:resource="http://purl.org/dc/dcmitype/StillImage" />
        <dc:title></dc:title>
      </cc:Work>
    </rdf:RDF>
  </metadata>
  <path
     d="m 21.500008,219.61442 c -3.7823,-1.968 -18.1700899,-16.0587 -20.0726899,-19.6582 -1.16860001,-2.211 -1.427300005394,-10.0581 -1.427300005394,-43.29962 0,-43.7942 -0.05200000461,-43.3258 5.419200005394,-48.4377 l 2.60929,-2.4377 -2.89429,-3.0623 c -1.5918,-1.6842 -3.3982,-4.0452 -4.0142,-5.2465 -0.77290001,-1.5073 -1.11880001,-14.8342 -1.11630001,-43 0,-45.8082 -0.2773,-43.9535 7.58230001,-49.9499 L 11.342308,1.6566 56.921096,1.3598 c 25.068391,-0.1632 47.086994,-0.022 48.930294,0.3144 2.4178,0.4409 5.8573,3.0267 12.3459,9.2817 4.94679,4.7688 9.62619,9.8925 10.39849,11.386 1.1379,2.2005 1.4042,10.4134 1.4042,43.3147 0,43.7942 0.052,43.3259 -5.4192,48.4377 l -2.6093,2.4377 2.8943,3.0623 c 1.5918,1.6843 3.3982,4.0453 4.0142,5.2466 0.7729,1.5073 1.1188,14.8341 1.1163,43 0,45.80812 0.2773,43.95342 -7.5824,49.94982 l -3.75629,2.8658 -47.078799,0.2594 c -41.057283,0.2262 -47.462483,0.06 -50.078783,-1.3015 z m 77.399972,-16.5211 c 5.47651,-1.2624 9.60851,-4.1409 11.86511,-8.2656 1.5522,-2.8372 1.7349,-6.822 1.7349,-37.83732 0,-19.0665 -0.3744,-35.0415 -0.8321,-35.5 -1.2939,-1.2965 -74.016892,-1.6391 -79.904182,-0.3765 -5.997,1.2861 -10.1824,4.0828 -12.5288,8.3716 -1.5191,2.7766 -1.7749,7.0276 -2.0563,34.1711 -0.1767,17.04992 -0.041,32.88482 0.3021,35.18852 0.5331,3.5819 1.0142,4.2483 3.3214,4.6002 6.0085,0.9166 73.922674,0.6105 78.097872,-0.352 z m 0,-101.99992 c 5.47651,-1.2624 9.60851,-4.1409 11.86511,-8.2656 1.5522,-2.8372 1.7349,-6.822 1.7349,-37.8374 0,-19.0665 -0.3744,-35.0415 -0.8321,-35.5 -1.2939,-1.2965 -74.016892,-1.6391 -79.904182,-0.3765 -5.997,1.2861 -10.1824,4.0828 -12.5288,8.3716 -1.5191,2.7766 -1.7749,7.0276 -2.0563,34.1711 -0.1767,17.05 -0.041,32.8849 0.3021,35.1886 0.5331,3.5819 1.0142,4.2483 3.3214,4.6002 6.0085,0.9166 73.922674,0.6105 78.097872,-0.352 z"
     id="path3870"
     style="fill:#ffffff;stroke:none" />
</svg>
