<?xml version="1.0" encoding="UTF-8" standalone="no"?>
<!-- Created with Inkscape (http://www.inkscape.org/) -->

<svg
   xmlns:dc="http://purl.org/dc/elements/1.1/"
   xmlns:cc="http://creativecommons.org/ns#"
   xmlns:rdf="http://www.w3.org/1999/02/22-rdf-syntax-ns#"
   xmlns:svg="http://www.w3.org/2000/svg"
   xmlns="http://www.w3.org/2000/svg"
   version="1.1"
   width="143"
   height="221"
   id="svg4334">
  <defs
     id="defs4336" />
  <metadata
     id="metadata4339">
    <rdf:RDF>
      <cc:Work
         rdf:about="">
        <dc:format>image/svg+xml</dc:format>
        <dc:type
           rdf:resource="http://purl.org/dc/dcmitype/StillImage" />
        <dc:title></dc:title>
      </cc:Work>
    </rdf:RDF>
  </metadata>
  <g
     id="g3020">
    <path
       d="m 34.185556,219.61412 c -3.782298,-1.968 -18.170093,-16.0587 -20.072692,-19.6582 -1.1686,-2.211 -1.427299,-10.0581 -1.427299,-43.29962 0,-43.7942 -0.052,-43.3258 5.419198,-48.4377 l 2.609299,-2.4377 -2.894299,-3.0623 c -1.5918,-1.6842 -3.3982,-4.045204 -4.014199,-5.246504 -0.7729,-1.5073 -1.118799,-14.8342 -1.116299,-43 0,-45.8082004 -0.2773,-43.9535 7.582297,-49.9499004 l 3.756298,-2.8659 45.578784,-0.2968 c 25.068391,-0.1632 47.086996,-0.022 48.930296,0.3144 2.4178,0.4409 5.8573,3.0267 12.3459,9.2817004 4.94679,4.7688 9.62619,9.8925 10.39849,11.386 1.1379,2.2005 1.4042,10.4134 1.4042,43.3147 0,43.794204 0.052,43.325904 -5.4192,48.437704 l -2.6093,2.4377 2.8943,3.0623 c 1.5918,1.6843 3.3982,4.0453 4.0142,5.2466 0.7729,1.5073 1.1188,14.8341 1.1163,43 0,45.80812 0.2773,43.95342 -7.5824,49.94982 l -3.75629,2.8658 -47.078801,0.2594 c -41.057286,0.2262 -47.462483,0.06 -50.078783,-1.3015 z m 77.399974,-16.5211 c 5.47651,-1.2624 9.60851,-4.1409 11.86511,-8.2656 1.5522,-2.8372 1.7349,-6.822 1.7349,-37.83732 0,-19.0665 -0.3744,-35.0415 -0.8321,-35.5 -1.2939,-1.2965 -74.016889,-1.6391 -79.904187,-0.3765 -5.996998,1.2861 -10.182397,4.0828 -12.528796,8.3716 -1.519099,2.7766 -1.774899,7.0276 -2.056299,34.1711 -0.1767,17.04992 -0.041,32.88482 0.3021,35.18852 0.5331,3.5819 1.0142,4.2483 3.321399,4.6002 6.008498,0.9166 73.922673,0.6105 78.097873,-0.352 z m 0,-101.99992 c 5.47651,-1.262404 9.60851,-4.140904 11.86511,-8.265604 1.5522,-2.8372 1.7349,-6.822 1.7349,-37.8374 0,-19.0665 -0.3744,-35.0415 -0.8321,-35.5 -1.2939,-1.2965 -74.016889,-1.6391 -79.904187,-0.3765 -5.996998,1.2861 -10.182397,4.0828 -12.528796,8.3716 -1.519099,2.7766 -1.774899,7.0276 -2.056299,34.1711 -0.1767,17.05 -0.041,32.8849 0.3021,35.1886 0.5331,3.581904 1.0142,4.248304 3.321399,4.600204 6.008498,0.9166 73.922673,0.6105 78.097873,-0.352 z"
       id="path3016"
       style="fill:#4d4d4d;fill-opacity:1;stroke:none" />
    <path
       d="m 32.917001,219.61415 c -3.782298,-1.968 -18.170093,-16.0587 -20.072692,-19.6582 -1.1686,-2.211 -1.427299,-10.0581 -1.427299,-43.29962 0,-43.7942 -0.052,-43.3258 5.419198,-48.4377 l 2.609299,-2.4377 -2.894299,-3.0623 c -1.5918,-1.6842 -3.3982,-4.045204 -4.014199,-5.246504 -0.7729,-1.5073 -1.118799,-14.8342 -1.116299,-43 0,-45.8081999 -0.2773,-43.9535 7.582297,-49.9498999 l 3.756298,-2.8659 45.578784,-0.2968 c 25.068391,-0.1632 47.086991,-0.022 48.930291,0.3144 2.4178,0.4409 5.8573,3.0267 12.3459,9.2816999 4.94679,4.7688 9.62619,9.8925 10.39849,11.386 1.1379,2.2005 1.4042,10.4134 1.4042,43.3147 0,43.794204 0.052,43.325904 -5.4192,48.437704 l -2.6093,2.4377 2.8943,3.0623 c 1.5918,1.6843 3.3982,4.0453 4.0142,5.2466 0.7729,1.5073 1.1188,14.8341 1.1163,43 0,45.80812 0.2773,43.95342 -7.5824,49.94982 l -3.75629,2.8658 -47.078796,0.2594 c -41.057286,0.2262 -47.462483,0.06 -50.078783,-1.3015 z m 77.399969,-16.5211 c 5.47651,-1.2624 9.60851,-4.1409 11.86511,-8.2656 1.5522,-2.8372 1.7349,-6.822 1.7349,-37.83732 0,-19.0665 -0.3744,-35.0415 -0.8321,-35.5 -1.2939,-1.2965 -74.016884,-1.6391 -79.904182,-0.3765 -5.996998,1.2861 -10.182397,4.0828 -12.528796,8.3716 -1.519099,2.7766 -1.774899,7.0276 -2.056299,34.1711 -0.1767,17.04992 -0.041,32.88482 0.3021,35.18852 0.5331,3.5819 1.0142,4.2483 3.321399,4.6002 6.008498,0.9166 73.922668,0.6105 78.097868,-0.352 z m 0,-101.99992 c 5.47651,-1.262404 9.60851,-4.140904 11.86511,-8.265604 1.5522,-2.8372 1.7349,-6.822 1.7349,-37.8374 0,-19.0665 -0.3744,-35.0415 -0.8321,-35.5 -1.2939,-1.2965 -74.016884,-1.6391 -79.904182,-0.3765 -5.996998,1.2861 -10.182397,4.0828 -12.528796,8.3716 -1.519099,2.7766 -1.774899,7.0276 -2.056299,34.1711 -0.1767,17.05 -0.041,32.8849 0.3021,35.1886 0.5331,3.581904 1.0142,4.248304 3.321399,4.600204 6.008498,0.9166 73.922668,0.6105 78.097868,-0.352 z"
       id="path3014"
       style="fill:#666666;fill-opacity:1;stroke:none" />
    <path
       d="m 31.648447,219.61418 c -3.782298,-1.968 -18.170093,-16.0587 -20.072692,-19.6582 -1.1686,-2.211 -1.427299,-10.0581 -1.427299,-43.29962 0,-43.7942 -0.052,-43.3258 5.419198,-48.4377 l 2.609299,-2.4377 -2.894299,-3.0623 c -1.5918,-1.6842 -3.3982,-4.045203 -4.014199,-5.246503 -0.7729,-1.5073 -1.118799,-14.8342 -1.116299,-43 0,-45.8082004 -0.2773004,-43.9535 7.582297,-49.9499004 l 3.756298,-2.8659 45.578784,-0.2968 c 25.068391,-0.1632 47.086995,-0.022 48.930295,0.3144 2.4178,0.4409 5.8573,3.0267 12.3459,9.2817004 4.94679,4.7688 9.62619,9.8925 10.39849,11.386 1.1379,2.2005 1.4042,10.4134 1.4042,43.3147 0,43.794203 0.052,43.325903 -5.4192,48.437703 l -2.6093,2.4377 2.8943,3.0623 c 1.5918,1.6843 3.3982,4.0453 4.0142,5.2466 0.7729,1.5073 1.1188,14.8341 1.1163,43 0,45.80812 0.2773,43.95342 -7.5824,49.94982 l -3.75629,2.8658 -47.0788,0.2594 c -41.057286,0.2262 -47.462483,0.06 -50.078783,-1.3015 z m 77.399973,-16.5211 c 5.47651,-1.2624 9.60851,-4.1409 11.86511,-8.2656 1.5522,-2.8372 1.7349,-6.822 1.7349,-37.83732 0,-19.0665 -0.3744,-35.0415 -0.8321,-35.5 -1.2939,-1.2965 -74.016888,-1.6391 -79.904186,-0.3765 -5.996998,1.2861 -10.182397,4.0828 -12.528796,8.3716 -1.519099,2.7766 -1.774899,7.0276 -2.056299,34.1711 -0.1767,17.04992 -0.041,32.88482 0.3021,35.18852 0.5331,3.5819 1.0142,4.2483 3.321399,4.6002 6.008498,0.9166 73.922672,0.6105 78.097872,-0.352 z m 0,-101.99992 c 5.47651,-1.262403 9.60851,-4.140903 11.86511,-8.265603 1.5522,-2.8372 1.7349,-6.822 1.7349,-37.8374 0,-19.0665 -0.3744,-35.0415 -0.8321,-35.5 -1.2939,-1.2965 -74.016888,-1.6391 -79.904186,-0.3765 -5.996998,1.2861 -10.182397,4.0828 -12.528796,8.3716 -1.519099,2.7766 -1.774899,7.0276 -2.056299,34.1711 -0.1767,17.05 -0.041,32.8849 0.3021,35.1886 0.5331,3.581903 1.0142,4.248303 3.321399,4.600203 6.008498,0.9166 73.922672,0.6105 78.097872,-0.352 z"
       id="path3012"
       style="fill:#808080;fill-opacity:1;stroke:none" />
    <path
       d="m 30.379892,219.61421 c -3.782298,-1.968 -18.170093,-16.0587 -20.072692,-19.6582 -1.1685992,-2.211 -1.4272991,-10.0581 -1.4272991,-43.29962 0,-43.7942 -0.052,-43.3258 5.4191981,-48.4377 l 2.609299,-2.4377 -2.894299,-3.0623 c -1.5918,-1.6842 -3.3982,-4.045203 -4.0141982,-5.246503 -0.7729001,-1.5073 -1.1187999,-14.8342 -1.1162999,-43 0,-45.8081999 -0.2772999,-43.9535 7.5822971,-49.9498999 l 3.756298,-2.8659 45.578784,-0.2968 c 25.068391,-0.1632 47.08699,-0.022 48.93029,0.3144 2.4178,0.4409 5.8573,3.0267 12.3459,9.2816999 4.94679,4.7688 9.62619,9.8925 10.39849,11.386 1.1379,2.2005 1.4042,10.4134 1.4042,43.3147 0,43.794203 0.052,43.325903 -5.4192,48.437703 l -2.6093,2.4377 2.8943,3.0623 c 1.5918,1.6843 3.3982,4.0453 4.0142,5.2466 0.7729,1.5073 1.1188,14.8341 1.1163,43 0,45.80812 0.2773,43.95342 -7.5824,49.94982 l -3.75629,2.8658 -47.078795,0.2594 c -41.057286,0.2262 -47.462483,0.06 -50.078783,-1.3015 z m 77.399968,-16.5211 c 5.47651,-1.2624 9.60851,-4.1409 11.86511,-8.2656 1.5522,-2.8372 1.7349,-6.822 1.7349,-37.83732 0,-19.0665 -0.3744,-35.0415 -0.8321,-35.5 -1.2939,-1.2965 -74.016883,-1.6391 -79.904181,-0.3765 -5.996998,1.2861 -10.182397,4.0828 -12.528796,8.3716 -1.519099,2.7766 -1.774899,7.0276 -2.056299,34.1711 -0.1767,17.04992 -0.041,32.88482 0.3021,35.18852 0.5331,3.5819 1.0142,4.2483 3.321399,4.6002 6.008498,0.9166 73.922667,0.6105 78.097867,-0.352 z m 0,-101.99992 c 5.47651,-1.262403 9.60851,-4.140903 11.86511,-8.265603 1.5522,-2.8372 1.7349,-6.822 1.7349,-37.8374 0,-19.0665 -0.3744,-35.0415 -0.8321,-35.5 -1.2939,-1.2965 -74.016883,-1.6391 -79.904181,-0.3765 -5.996998,1.2861 -10.182397,4.0828 -12.528796,8.3716 -1.519099,2.7766 -1.774899,7.0276 -2.056299,34.1711 -0.1767,17.05 -0.041,32.8849 0.3021,35.1886 0.5331,3.581903 1.0142,4.248303 3.321399,4.600203 6.008498,0.9166 73.922667,0.6105 78.097867,-0.352 z"
       id="path3010"
       style="fill:#999999;fill-opacity:1;stroke:none" />
    <path
       d="m 29.111338,219.61424 c -3.782298,-1.968 -18.170093,-16.0587 -20.0726923,-19.6582 -1.1685996,-2.211 -1.4272995,-10.0581 -1.4272995,-43.29962 0,-43.7942 -0.052,-43.3258 5.4191988,-48.4377 l 2.609299,-2.4377 -2.894299,-3.0623 c -1.5918,-1.6842 -3.3981994,-4.045202 -4.0141992,-5.246502 -0.7728998,-1.5073 -1.1187996,-14.8342 -1.1162996,-43 0,-45.8082003 -0.2772999,-43.9535 7.5822978,-49.9499003 l 3.756298,-2.8659 45.578784,-0.2968 c 25.068391,-0.1632 47.086994,-0.022 48.930294,0.3144 2.4178,0.4409 5.8573,3.0267 12.3459,9.2817003 4.94679,4.7688 9.62619,9.8925 10.39849,11.386 1.1379,2.2005 1.4042,10.4134 1.4042,43.3147 0,43.794202 0.052,43.325902 -5.4192,48.437702 l -2.6093,2.4377 2.8943,3.0623 c 1.5918,1.6843 3.3982,4.0453 4.0142,5.2466 0.7729,1.5073 1.1188,14.8341 1.1163,43 0,45.80812 0.2773,43.95342 -7.5824,49.94982 l -3.75629,2.8658 -47.078799,0.2594 c -41.057286,0.2262 -47.462483,0.06 -50.078783,-1.3015 z m 77.399972,-16.5211 c 5.47651,-1.2624 9.60851,-4.1409 11.86511,-8.2656 1.5522,-2.8372 1.7349,-6.822 1.7349,-37.83732 0,-19.0665 -0.3744,-35.0415 -0.8321,-35.5 -1.2939,-1.2965 -74.016887,-1.6391 -79.904185,-0.3765 -5.996998,1.2861 -10.182397,4.0828 -12.528796,8.3716 -1.519099,2.7766 -1.774899,7.0276 -2.056299,34.1711 -0.1767,17.04992 -0.041,32.88482 0.3021,35.18852 0.5331,3.5819 1.0142,4.2483 3.321399,4.6002 6.008498,0.9166 73.922671,0.6105 78.097871,-0.352 z m 0,-101.99992 c 5.47651,-1.262402 9.60851,-4.140902 11.86511,-8.265602 1.5522,-2.8372 1.7349,-6.822 1.7349,-37.8374 0,-19.0665 -0.3744,-35.0415 -0.8321,-35.5 -1.2939,-1.2965 -74.016887,-1.6391 -79.904185,-0.3765 -5.996998,1.2861 -10.182397,4.0828 -12.528796,8.3716 -1.519099,2.7766 -1.774899,7.0276 -2.056299,34.1711 -0.1767,17.05 -0.041,32.8849 0.3021,35.1886 0.5331,3.581902 1.0142,4.248302 3.321399,4.600202 6.008498,0.9166 73.922671,0.6105 78.097871,-0.352 z"
       id="path2985"
       style="fill:#b3b3b3;fill-opacity:1;stroke:none" />
    <path
       d="m 27.842783,219.61427 c -3.782298,-1.968 -18.1700927,-16.0587 -20.072692,-19.6582 -1.1685996,-2.211 -1.4272995,-10.0581 -1.4272995,-43.29962 0,-43.7942 -0.052,-43.3258 5.4191985,-48.4377 l 2.609299,-2.4377 -2.894299,-3.0623 c -1.5917998,-1.6842 -3.3981991,-4.045202 -4.0141989,-5.246502 -0.7728998,-1.5073 -1.1187996,-14.8342 -1.1162996,-43 0,-45.8081998 -0.2772999,-43.9535 7.5822975,-49.9498998 l 3.756298,-2.8659 45.578784,-0.2968 c 25.068391,-0.1632 47.086999,-0.022 48.930299,0.3144 2.4178,0.4409 5.8573,3.0267 12.3459,9.2816998 4.94679,4.7688 9.62619,9.8925 10.39849,11.386 1.1379,2.2005 1.4042,10.4134 1.4042,43.3147 0,43.794202 0.052,43.325902 -5.4192,48.437702 l -2.6093,2.4377 2.8943,3.0623 c 1.5918,1.6843 3.3982,4.0453 4.0142,5.2466 0.7729,1.5073 1.1188,14.8341 1.1163,43 0,45.80812 0.2773,43.95342 -7.5824,49.94982 l -3.75629,2.8658 -47.078804,0.2594 c -41.057286,0.2262 -47.462483,0.06 -50.078783,-1.3015 z m 77.399977,-16.5211 c 5.47651,-1.2624 9.60851,-4.1409 11.86511,-8.2656 1.5522,-2.8372 1.7349,-6.822 1.7349,-37.83732 0,-19.0665 -0.3744,-35.0415 -0.8321,-35.5 -1.2939,-1.2965 -74.016892,-1.6391 -79.90419,-0.3765 -5.996998,1.2861 -10.182397,4.0828 -12.528796,8.3716 -1.519099,2.7766 -1.774899,7.0276 -2.056299,34.1711 -0.1767,17.04992 -0.041,32.88482 0.3021,35.18852 0.5331,3.5819 1.0142,4.2483 3.321399,4.6002 6.008498,0.9166 73.922676,0.6105 78.097876,-0.352 z m 0,-101.99992 c 5.47651,-1.262402 9.60851,-4.140902 11.86511,-8.265602 1.5522,-2.8372 1.7349,-6.822 1.7349,-37.8374 0,-19.0665 -0.3744,-35.0415 -0.8321,-35.5 -1.2939,-1.2965 -74.016892,-1.6391 -79.90419,-0.3765 -5.996998,1.2861 -10.182397,4.0828 -12.528796,8.3716 -1.519099,2.7766 -1.774899,7.0276 -2.056299,34.1711 -0.1767,17.05 -0.041,32.8849 0.3021,35.1886 0.5331,3.581902 1.0142,4.248302 3.321399,4.600202 6.008498,0.9166 73.922676,0.6105 78.097876,-0.352 z"
       id="path6331"
       style="fill:#cccccc;fill-opacity:1;stroke:none" />
    <path
       d="m 26.574229,219.6143 c -3.782298,-1.968 -18.1700932,-16.0587 -20.0726922,-19.6582 -1.1686,-2.211 -1.4273,-10.0581 -1.4273,-43.29962 0,-43.7942 -0.052,-43.3258 5.4191982,-48.4377 l 2.609299,-2.4377 -2.894298,-3.0623 c -1.5918002,-1.6842 -3.3981992,-4.045201 -4.0141992,-5.246501 -0.7729,-1.5073 -1.1188,-14.8342 -1.1163,-43 0,-45.8082003 -0.2773,-43.9535 7.5822982,-49.9499003 l 3.756298,-2.8659 45.578784,-0.2968 c 25.068391,-0.1632 47.086993,-0.022 48.930293,0.3144 2.4178,0.4409 5.8573,3.0267 12.3459,9.2817003 4.94679,4.7688 9.62619,9.8925 10.39849,11.386 1.1379,2.2005 1.4042,10.4134 1.4042,43.3147 0,43.794201 0.052,43.325901 -5.4192,48.437701 l -2.6093,2.4377 2.8943,3.0623 c 1.5918,1.6843 3.3982,4.0453 4.0142,5.2466 0.7729,1.5073 1.1188,14.8341 1.1163,43 0,45.80812 0.2773,43.95342 -7.5824,49.94982 l -3.75629,2.8658 -47.078798,0.2594 c -41.057286,0.2262 -47.462483,0.06 -50.078783,-1.3015 z M 103.9742,203.0932 c 5.47651,-1.2624 9.60851,-4.1409 11.86511,-8.2656 1.5522,-2.8372 1.7349,-6.822 1.7349,-37.83732 0,-19.0665 -0.3744,-35.0415 -0.8321,-35.5 -1.2939,-1.2965 -74.016886,-1.6391 -79.904184,-0.3765 -5.996998,1.2861 -10.182397,4.0828 -12.528796,8.3716 -1.519099,2.7766 -1.774899,7.0276 -2.056299,34.1711 -0.1767,17.04992 -0.041,32.88482 0.3021,35.18852 0.5331,3.5819 1.0142,4.2483 3.321399,4.6002 6.008498,0.9166 73.922673,0.6105 78.09787,-0.352 z m 0,-101.99992 c 5.47651,-1.262401 9.60851,-4.140901 11.86511,-8.265601 1.5522,-2.8372 1.7349,-6.822 1.7349,-37.8374 0,-19.0665 -0.3744,-35.0415 -0.8321,-35.5 -1.2939,-1.2965 -74.016886,-1.6391 -79.904184,-0.3765 -5.996998,1.2861 -10.182397,4.0828 -12.528796,8.3716 -1.519099,2.7766 -1.774899,7.0276 -2.056299,34.1711 -0.1767,17.05 -0.041,32.8849 0.3021,35.1886 0.5331,3.581901 1.0142,4.248301 3.321399,4.600201 6.008498,0.9166 73.922673,0.6105 78.09787,-0.352 z"
       id="path2983"
       style="fill:#e6e6e6;stroke:none" />
    <path
       d="m 25.305674,219.61433 c -3.782298,-1.968 -18.1700928,-16.0587 -20.0726918,-19.6582 -1.1686,-2.211 -1.4273,-10.0581 -1.4273,-43.29962 0,-43.7942 -0.052,-43.3258 5.419198,-48.4377 l 2.6092988,-2.4377 -2.8942978,-3.0623 c -1.5918,-1.6842 -3.398199,-4.045201 -4.014199,-5.246501 -0.7729,-1.5073 -1.1188,-14.8342 -1.1163,-43 0,-45.8081998 -0.2773,-43.9535 7.5822978,-49.9498998 l 3.756298,-2.8659 45.578784,-0.2968 c 25.068391,-0.1632 47.086998,-0.022 48.930298,0.3144 2.4178,0.4409 5.8573,3.0267 12.3459,9.2816998 4.94679,4.7688 9.62619,9.8925 10.39849,11.386 1.1379,2.2005 1.4042,10.4134 1.4042,43.3147 0,43.794201 0.052,43.325901 -5.4192,48.437701 l -2.6093,2.4377 2.8943,3.0623 c 1.5918,1.6843 3.3982,4.0453 4.0142,5.2466 0.7729,1.5073 1.1188,14.8341 1.1163,43 0,45.80812 0.2773,43.95342 -7.5824,49.94982 l -3.75629,2.8658 -47.078803,0.2594 c -41.057286,0.2262 -47.462483,0.06 -50.078783,-1.3015 z m 77.399976,-16.5211 c 5.47651,-1.2624 9.60851,-4.1409 11.86511,-8.2656 1.5522,-2.8372 1.7349,-6.822 1.7349,-37.83732 0,-19.0665 -0.3744,-35.0415 -0.8321,-35.5 -1.2939,-1.2965 -74.016891,-1.6391 -79.904189,-0.3765 -5.996998,1.2861 -10.182397,4.0828 -12.528796,8.3716 -1.519099,2.7766 -1.774899,7.0276 -2.056299,34.1711 -0.1767,17.04992 -0.041,32.88482 0.3021,35.18852 0.5331,3.5819 1.0142,4.2483 3.321399,4.6002 6.008498,0.9166 73.922673,0.6105 78.097875,-0.352 z m 0,-101.99992 c 5.47651,-1.262401 9.60851,-4.140901 11.86511,-8.265601 1.5522,-2.8372 1.7349,-6.822 1.7349,-37.8374 0,-19.0665 -0.3744,-35.0415 -0.8321,-35.5 -1.2939,-1.2965 -74.016891,-1.6391 -79.904189,-0.3765 -5.996998,1.2861 -10.182397,4.0828 -12.528796,8.3716 -1.519099,2.7766 -1.774899,7.0276 -2.056299,34.1711 -0.1767,17.05 -0.041,32.8849 0.3021,35.1886 0.5331,3.581901 1.0142,4.248301 3.321399,4.600201 6.008498,0.9166 73.922673,0.6105 78.097875,-0.352 z"
       id="path3043"
       style="fill:#ececec;stroke:none" />
    <path
       d="m 24.037119,219.61436 c -3.782298,-1.968 -18.1700925,-16.0587 -20.0726915,-19.6582 -1.1686,-2.211 -1.4273,-10.0581 -1.4273,-43.29962 0,-43.7942 -0.052,-43.3258 5.419198,-48.4377 l 2.6092985,-2.4377 -2.8942975,-3.0623 c -1.5918,-1.6842 -3.398199,-4.0452 -4.014199,-5.2465 -0.7729,-1.5073 -1.1188,-14.8342 -1.1163,-43 0,-45.8082003 -0.2773,-43.9535 7.5822975,-49.9499003 l 3.756298,-2.8659 45.578784,-0.2968 c 25.068391,-0.1632 47.086993,-0.022 48.930293,0.3144 2.4178,0.4409 5.8573,3.0267 12.3459,9.2817003 4.94679,4.7688 9.62619,9.8925 10.39849,11.386 1.1379,2.2005 1.4042,10.4134 1.4042,43.3147 0,43.7942 0.052,43.3259 -5.4192,48.4377 l -2.6093,2.4377 2.8943,3.0623 c 1.5918,1.6843 3.3982,4.0453 4.0142,5.2466 0.7729,1.5073 1.1188,14.8341 1.1163,43 0,45.80812 0.2773,43.95342 -7.5824,49.94982 l -3.75629,2.8658 -47.078798,0.2594 c -41.057286,0.2262 -47.462483,0.06 -50.078783,-1.3015 z m 77.399971,-16.5211 c 5.47651,-1.2624 9.60851,-4.1409 11.86511,-8.2656 1.5522,-2.8372 1.7349,-6.822 1.7349,-37.83732 0,-19.0665 -0.3744,-35.0415 -0.8321,-35.5 -1.2939,-1.2965 -74.016886,-1.6391 -79.904184,-0.3765 -5.996998,1.2861 -10.182397,4.0828 -12.528796,8.3716 -1.519099,2.7766 -1.774899,7.0276 -2.056299,34.1711 -0.1767,17.04992 -0.041,32.88482 0.3021,35.18852 0.5331,3.5819 1.0142,4.2483 3.321399,4.6002 6.008498,0.9166 73.922673,0.6105 78.09787,-0.352 z m 0,-101.99992 c 5.47651,-1.2624 9.60851,-4.1409 11.86511,-8.2656 1.5522,-2.8372 1.7349,-6.822 1.7349,-37.8374 0,-19.0665 -0.3744,-35.0415 -0.8321,-35.5 -1.2939,-1.2965 -74.016886,-1.6391 -79.904184,-0.3765 -5.996998,1.2861 -10.182397,4.0828 -12.528796,8.3716 -1.519099,2.7766 -1.774899,7.0276 -2.056299,34.1711 -0.1767,17.05 -0.041,32.8849 0.3021,35.1886 0.5331,3.5819 1.0142,4.2483 3.321399,4.6002 6.008498,0.9166 73.922673,0.6105 78.09787,-0.352 z"
       id="path3866"
       style="fill:#f2f2f2;stroke:none" />
    <path
       d="m 22.768565,219.61439 c -3.782298,-1.968 -18.1700932,-16.0587 -20.0726922,-19.6582 -1.1686,-2.211 -1.4273,-10.0581 -1.4273,-43.29962 0,-43.7942 -0.052,-43.3258 5.419198,-48.4377 l 2.6092986,-2.4377 -2.8942976,-3.0623 c -1.5918,-1.6842 -3.398199,-4.0452 -4.014199,-5.2465 -0.7729,-1.5073 -1.1188,-14.8342 -1.1163,-43 0,-45.8081998 -0.27730007,-43.9535 7.582298,-49.9498998 l 3.7562982,-2.8659 45.578784,-0.2968 c 25.068391,-0.1632 47.086987,-0.022 48.930287,0.3144 2.4178,0.4409 5.8573,3.0267 12.3459,9.2816998 4.94679,4.7688 9.62619,9.8925 10.39849,11.386 1.1379,2.2005 1.4042,10.4134 1.4042,43.3147 0,43.7942 0.052,43.3259 -5.4192,48.4377 l -2.6093,2.4377 2.8943,3.0623 c 1.5918,1.6843 3.3982,4.0453 4.0142,5.2466 0.7729,1.5073 1.1188,14.8341 1.1163,43 0,45.80812 0.2773,43.95342 -7.5824,49.94982 l -3.75629,2.8658 -47.078792,0.2594 c -41.057286,0.2262 -47.462483,0.06 -50.078783,-1.3015 z m 77.399965,-16.5211 c 5.47651,-1.2624 9.60851,-4.1409 11.86511,-8.2656 1.5522,-2.8372 1.7349,-6.822 1.7349,-37.83732 0,-19.0665 -0.3744,-35.0415 -0.8321,-35.5 -1.2939,-1.2965 -74.01688,-1.6391 -79.904178,-0.3765 -5.996998,1.2861 -10.182397,4.0828 -12.528796,8.3716 -1.519099,2.7766 -1.774899,7.0276 -2.056299,34.1711 -0.1767,17.04992 -0.041,32.88482 0.3021,35.18852 0.5331,3.5819 1.0142,4.2483 3.321399,4.6002 6.008498,0.9166 73.922673,0.6105 78.097864,-0.352 z m 0,-101.99992 c 5.47651,-1.2624 9.60851,-4.1409 11.86511,-8.2656 1.5522,-2.8372 1.7349,-6.822 1.7349,-37.8374 0,-19.0665 -0.3744,-35.0415 -0.8321,-35.5 -1.2939,-1.2965 -74.01688,-1.6391 -79.904178,-0.3765 -5.996998,1.2861 -10.182397,4.0828 -12.528796,8.3716 -1.519099,2.7766 -1.774899,7.0276 -2.056299,34.1711 -0.1767,17.05 -0.041,32.8849 0.3021,35.1886 0.5331,3.5819 1.0142,4.2483 3.321399,4.6002 6.008498,0.9166 73.922673,0.6105 78.097864,-0.352 z"
       id="path3868"
       style="fill:#f9f9f9;stroke:none" />
    <path
       d="m 21.50001,219.61442 c -3.782298,-1.968 -18.1700929,-16.0587 -20.0726919,-19.6582 -1.1686,-2.211 -1.4273,-10.0581 -1.4273,-43.29962 0,-43.7942 -0.052,-43.3258 5.419198,-48.4377 l 2.6092986,-2.4377 -2.8942976,-3.0623 c -1.5918,-1.6842 -3.398199,-4.0452 -4.014199,-5.2465 -0.7729,-1.5073 -1.1188,-14.8342 -1.1163,-43 0,-45.8082 -0.2773001,-43.9535 7.582298,-49.9499 L 11.342314,1.6566 56.921098,1.3598 c 25.068391,-0.1632 47.086992,-0.022 48.930292,0.3144 2.4178,0.4409 5.8573,3.0267 12.3459,9.2817 4.94679,4.7688 9.62619,9.8925 10.39849,11.386 1.1379,2.2005 1.4042,10.4134 1.4042,43.3147 0,43.7942 0.052,43.3259 -5.4192,48.4377 l -2.6093,2.4377 2.8943,3.0623 c 1.5918,1.6843 3.3982,4.0453 4.0142,5.2466 0.7729,1.5073 1.1188,14.8341 1.1163,43 0,45.80812 0.2773,43.95342 -7.5824,49.94982 l -3.75629,2.8658 -47.078797,0.2594 c -41.057286,0.2262 -47.462483,0.06 -50.078783,-1.3015 z m 77.399972,-16.5211 c 5.476508,-1.2624 9.608508,-4.1409 11.865108,-8.2656 1.5522,-2.8372 1.7349,-6.822 1.7349,-37.83732 0,-19.0665 -0.3744,-35.0415 -0.8321,-35.5 -1.2939,-1.2965 -74.016885,-1.6391 -79.904183,-0.3765 -5.996998,1.2861 -10.182397,4.0828 -12.528796,8.3716 -1.519099,2.7766 -1.774899,7.0276 -2.056299,34.1711 -0.1767,17.04992 -0.041,32.88482 0.3021,35.18852 0.5331,3.5819 1.0142,4.2483 3.321399,4.6002 6.008498,0.9166 73.922673,0.6105 78.097871,-0.352 z m 0,-101.99992 c 5.476508,-1.2624 9.608508,-4.1409 11.865108,-8.2656 1.5522,-2.8372 1.7349,-6.822 1.7349,-37.8374 0,-19.0665 -0.3744,-35.0415 -0.8321,-35.5 -1.2939,-1.2965 -74.016885,-1.6391 -79.904183,-0.3765 -5.996998,1.2861 -10.182397,4.0828 -12.528796,8.3716 -1.519099,2.7766 -1.774899,7.0276 -2.056299,34.1711 -0.1767,17.05 -0.041,32.8849 0.3021,35.1886 0.5331,3.5819 1.0142,4.2483 3.321399,4.6002 6.008498,0.9166 73.922673,0.6105 78.097871,-0.352 z"
       id="path3870"
       style="fill:#ffffff;stroke:none" />
  </g>
</svg>
