<?xml version="1.0" encoding="UTF-8" standalone="no"?>
<!-- Created with Inkscape (http://www.inkscape.org/) -->

<svg
   xmlns:dc="http://purl.org/dc/elements/1.1/"
   xmlns:cc="http://creativecommons.org/ns#"
   xmlns:rdf="http://www.w3.org/1999/02/22-rdf-syntax-ns#"
   xmlns:svg="http://www.w3.org/2000/svg"
   xmlns="http://www.w3.org/2000/svg"
   version="1.1"
   width="60"
   height="92"
   id="svg3373">
  <defs
     id="defs3375" />
  <metadata
     id="metadata3378">
    <rdf:RDF>
      <cc:Work
         rdf:about="">
        <dc:format>image/svg+xml</dc:format>
        <dc:type
           rdf:resource="http://purl.org/dc/dcmitype/StillImage" />
        <dc:title></dc:title>
      </cc:Work>
    </rdf:RDF>
  </metadata>
  <g
     transform="translate(0,-960.36218)"
     id="layer1">
    <g
       transform="translate(1192.7424,3036.6712)"
       id="g6593">
      <path
         d="m -1183.4353,-1985.3768 c -1.5493,-0.8061 -7.4431,-6.5782 -8.2225,-8.0527 -0.4787,-0.9057 -0.5846,-4.1201 -0.5846,-17.737 0,-17.9396 -0.021,-17.7477 2.2199,-19.8417 l 1.0688,-0.9986 -1.1856,-1.2544 c -0.652,-0.6899 -1.392,-1.6571 -1.6443,-2.1492 -0.3166,-0.6174 -0.4583,-6.0766 -0.4573,-17.6142 0,-18.7647 -0.1136,-18.0049 3.106,-20.4613 l 1.5387,-1.1739 18.6706,-0.1216 c 10.2689,-0.067 19.2885,-0.01 20.0436,0.1288 0.9904,0.1806 2.3993,1.2398 5.0573,3.8021 2.0263,1.9534 3.9432,4.0523 4.2595,4.6641 0.4662,0.9014 0.5753,4.2657 0.5753,17.7432 0,17.9396 0.021,17.7478 -2.2199,19.8417 l -1.0689,0.9986 1.1856,1.2544 c 0.6521,0.69 1.392,1.6571 1.6444,2.1492 0.3166,0.6175 0.4583,6.0766 0.4572,17.6143 0,18.7646 0.1136,18.0048 -3.106,20.4612 l -1.5387,1.1739 -19.2851,0.1063 c -16.8185,0.093 -19.4423,0.025 -20.514,-0.5332 z m 31.7057,-6.7676 c 2.2434,-0.5171 3.936,-1.6962 4.8604,-3.3859 0.6358,-1.1622 0.7107,-2.7945 0.7107,-15.4994 0,-7.8103 -0.1534,-14.3542 -0.3409,-14.5421 -0.53,-0.5311 -30.3199,-0.6714 -32.7315,-0.1542 -2.4566,0.5268 -4.1711,1.6725 -5.1323,3.4293 -0.6222,1.1374 -0.727,2.8787 -0.8423,13.9977 -0.072,6.9842 -0.017,13.4707 0.1238,14.4144 0.2183,1.4673 0.4154,1.7402 1.3605,1.8844 2.4613,0.3755 30.2813,0.2501 31.9916,-0.1442 z m 0,-41.7827 c 2.2434,-0.5171 3.936,-1.6962 4.8604,-3.3859 0.6358,-1.1622 0.7107,-2.7945 0.7107,-15.4995 0,-7.8103 -0.1534,-14.3542 -0.3409,-14.542 -0.53,-0.5311 -30.3199,-0.6714 -32.7315,-0.1542 -2.4566,0.5268 -4.1711,1.6724 -5.1323,3.4293 -0.6222,1.1374 -0.727,2.8787 -0.8423,13.9976 -0.072,6.9843 -0.017,13.4708 0.1238,14.4145 0.2183,1.4673 0.4154,1.7403 1.3605,1.8844 2.4613,0.3755 30.2813,0.2501 31.9916,-0.1442 z"
         id="path6595"
         style="opacity:0.31000001;fill:#ffffff;stroke:none" />
      <path
         d="m -1178.2086,-1985.3767 c -1.5494,-0.8062 -7.4431,-6.5782 -8.2225,-8.0527 -0.4787,-0.9057 -0.5846,-4.1202 -0.5846,-17.737 0,-17.9397 -0.021,-17.7478 2.2199,-19.8418 l 1.0688,-0.9986 -1.1856,-1.2544 c -0.652,-0.6899 -1.392,-1.657 -1.6443,-2.1491 -0.3166,-0.6175 -0.4583,-6.0766 -0.4573,-17.6143 0,-18.7646 -0.1136,-18.0049 3.106,-20.4613 l 1.5387,-1.174 18.6706,-0.1216 c 10.2689,-0.067 19.2885,-0.01 20.0436,0.1288 0.9904,0.1807 2.3993,1.2398 5.0573,3.8021 2.0263,1.9535 3.9432,4.0523 4.2595,4.6641 0.4662,0.9014 0.5752,4.2657 0.5752,17.7432 0,17.9396 0.021,17.7478 -2.2198,19.8418 l -1.0689,0.9985 1.1856,1.2545 c 0.6521,0.6899 1.392,1.6571 1.6444,2.1491 0.3166,0.6175 0.4583,6.0766 0.4572,17.6143 0,18.7646 0.1136,18.0049 -3.106,20.4612 l -1.5387,1.1739 -19.2851,0.1063 c -16.8185,0.093 -19.4423,0.025 -20.514,-0.5331 z m 31.7057,-6.7677 c 2.2434,-0.5171 3.936,-1.6962 4.8604,-3.3858 0.6358,-1.1623 0.7106,-2.7946 0.7106,-15.4995 0,-7.8103 -0.1533,-14.3542 -0.3408,-14.542 -0.53,-0.5311 -30.3199,-0.6715 -32.7315,-0.1542 -2.4566,0.5268 -4.1711,1.6724 -5.1323,3.4292 -0.6222,1.1374 -0.727,2.8788 -0.8423,13.9977 -0.072,6.9842 -0.017,13.4708 0.1238,14.4144 0.2183,1.4673 0.4154,1.7403 1.3605,1.8844 2.4613,0.3755 30.2813,0.2501 31.9916,-0.1442 z m 0,-41.7826 c 2.2434,-0.5172 3.936,-1.6963 4.8604,-3.3859 0.6358,-1.1622 0.7106,-2.7946 0.7106,-15.4996 0,-7.8103 -0.1533,-14.3542 -0.3408,-14.5419 -0.53,-0.5312 -30.3199,-0.6715 -32.7315,-0.1544 -2.4566,0.5269 -4.1711,1.6726 -5.1323,3.4293 -0.6222,1.1374 -0.727,2.8787 -0.8423,13.9977 -0.072,6.9843 -0.017,13.4708 0.1238,14.4144 0.2183,1.4673 0.4154,1.7403 1.3605,1.8844 2.4613,0.3755 30.2813,0.2501 31.9916,-0.1441 z"
         id="path6597"
         style="fill:#ffffff;stroke:none" />
    </g>
  </g>
</svg>
